<svg width="41" height="12" viewBox="0 0 41 12" fill="none" xmlns="http://www.w3.org/2000/svg">
<path d="M9.82231 10.8901L6.2746 0.795036H3.80851L0.275229 10.8901H2.42404L3.02975 9.07302H7.05337L7.65907 10.8901H9.82231ZM5.04877 3.08807L6.43324 7.21264H3.6643L5.04877 3.08807ZM14.9127 3.47745C13.9032 3.47745 13.1244 3.82357 12.5764 4.53022V0.795036H10.716V10.8901H12.5764V10.0393C13.1244 10.7459 13.9032 11.092 14.9127 11.092C15.8789 11.092 16.7154 10.7315 17.3932 9.996C18.0854 9.2605 18.4315 8.35194 18.4315 7.28474C18.4315 6.21755 18.0854 5.32341 17.3932 4.58791C16.7154 3.85241 15.8789 3.47745 14.9127 3.47745ZM13.1388 8.75574C12.7639 8.36636 12.5764 7.87603 12.5764 7.28474C12.5764 6.69346 12.7639 6.20313 13.1388 5.82817C13.5138 5.43878 13.9897 5.2513 14.5666 5.2513C15.1434 5.2513 15.6193 5.43878 15.9943 5.82817C16.3837 6.20313 16.5712 6.69346 16.5712 7.28474C16.5712 7.87603 16.3837 8.36636 15.9943 8.75574C15.6193 9.1307 15.1434 9.31819 14.5666 9.31819C13.9897 9.31819 13.5138 9.1307 13.1388 8.75574ZM25.8871 9.996C26.6226 9.2605 26.9976 8.35194 26.9976 7.28474C26.9976 6.21755 26.6226 5.32341 25.8871 4.58791C25.1516 3.85241 24.2431 3.47745 23.1759 3.47745C22.1087 3.47745 21.2001 3.85241 20.4646 4.58791C19.7291 5.32341 19.3686 6.21755 19.3686 7.28474C19.3686 8.35194 19.7291 9.2605 20.4646 9.996C21.2001 10.7315 22.1087 11.092 23.1759 11.092C24.2431 11.092 25.1516 10.7315 25.8871 9.996ZM21.777 8.71248C21.4165 8.33752 21.229 7.86161 21.229 7.28474C21.229 6.70788 21.4165 6.23197 21.777 5.85701C22.152 5.48205 22.6134 5.29457 23.1759 5.29457C23.7383 5.29457 24.1998 5.48205 24.5748 5.85701C24.9497 6.23197 25.1372 6.70788 25.1372 7.28474C25.1372 7.86161 24.9497 8.33752 24.5748 8.71248C24.1998 9.08744 23.7383 9.27492 23.1759 9.27492C22.6134 9.27492 22.152 9.08744 21.777 8.71248ZM33.0655 7.57318C33.0655 8.77017 32.4453 9.36145 31.4791 9.36145C30.6138 9.36145 30.0514 8.84227 30.0514 7.87603V3.67935H28.191V8.10677C28.191 9.04418 28.4506 9.76525 28.9553 10.2989C29.4745 10.8325 30.1235 11.092 30.9167 11.092C31.8973 11.092 32.6184 10.7603 33.0655 10.0825V10.8901H34.9259V3.67935H33.0655V7.57318ZM40.7543 3.67935H39.1247V1.66033L37.2643 2.22277V3.67935H36.0096V5.46763H37.2643V8.46731C37.2643 10.4431 38.2017 11.1786 40.7543 10.8901V9.20281C39.6871 9.2605 39.1247 9.24608 39.1247 8.46731V5.46763H40.7543V3.67935Z" fill="black"/>
</svg>
