<svg width="29" height="14" viewBox="0 0 29 14" fill="none" xmlns="http://www.w3.org/2000/svg">
<path d="M6.30134 5.65511C6.93588 5.15035 7.25316 4.47254 7.25316 3.63609C7.25316 2.81406 6.95031 2.13625 6.35902 1.60265C5.76774 1.06905 5.04666 0.79504 4.18137 0.79504H0.201013V10.8901H4.48422C5.36393 10.8901 6.11386 10.6161 6.71956 10.0681C7.32527 9.52009 7.62812 8.81343 7.62812 7.96256C7.62812 6.93863 7.18105 6.15986 6.30134 5.65511ZM4.18137 2.65542C4.81591 2.65542 5.26298 3.13133 5.26298 3.76588C5.26298 4.40043 4.80149 4.87634 4.18137 4.87634H2.19119V2.65542H4.18137ZM2.19119 9.02975V6.6502H4.48422C5.16203 6.6502 5.65236 7.15495 5.65236 7.83276C5.65236 8.525 5.16203 9.02975 4.48422 9.02975H2.19119ZM10.7067 10.8901V0.362393H8.84629V10.8901H10.7067ZM18.553 9.996C19.2885 9.2605 19.6635 8.35194 19.6635 7.28475C19.6635 6.21755 19.2885 5.32341 18.553 4.58791C17.8175 3.85241 16.909 3.47745 15.8418 3.47745C14.7746 3.47745 13.866 3.85241 13.1305 4.58791C12.395 5.32341 12.0345 6.21755 12.0345 7.28475C12.0345 8.35194 12.395 9.2605 13.1305 9.996C13.866 10.7315 14.7746 11.092 15.8418 11.092C16.909 11.092 17.8175 10.7315 18.553 9.996ZM14.4429 8.71248C14.0823 8.33752 13.8949 7.86161 13.8949 7.28475C13.8949 6.70788 14.0823 6.23197 14.4429 5.85701C14.8178 5.48205 15.2793 5.29457 15.8418 5.29457C16.4042 5.29457 16.8657 5.48205 17.2407 5.85701C17.6156 6.23197 17.8031 6.70788 17.8031 7.28475C17.8031 7.86161 17.6156 8.33752 17.2407 8.71248C16.8657 9.08744 16.4042 9.27492 15.8418 9.27492C15.2793 9.27492 14.8178 9.08744 14.4429 8.71248ZM26.4957 4.57349C25.9477 3.83799 25.1833 3.47745 24.1883 3.47745C23.1787 3.47745 22.3279 3.83799 21.6356 4.55907C20.9434 5.28015 20.5973 6.14544 20.5973 7.16937C20.5973 8.1933 20.9434 9.07302 21.6212 9.7941C22.3135 10.5008 23.1643 10.8613 24.1883 10.8613C25.1833 10.8613 25.9477 10.5008 26.4957 9.76525V10.544C26.4957 11.6833 25.7746 12.3179 24.6065 12.3179C23.7123 12.3179 23.0778 11.9862 22.7173 11.3084L21.1309 12.2169C21.7654 13.3706 22.9913 13.9764 24.5488 13.9764C25.5871 13.9764 26.4669 13.6879 27.2024 13.0966C27.9379 12.5054 28.3128 11.6545 28.3128 10.544V3.67935H26.4957V4.57349ZM26.4957 7.16937C26.4957 8.3231 25.6448 9.14513 24.4767 9.14513C23.3085 9.14513 22.4577 8.3231 22.4577 7.16937C22.4577 6.60693 22.6451 6.13102 23.0201 5.77048C23.4095 5.39552 23.8854 5.20804 24.4767 5.20804C25.068 5.20804 25.5439 5.39552 25.9188 5.77048C26.3082 6.13102 26.4957 6.60693 26.4957 7.16937Z" fill="black"/>
</svg>
