<svg width="39" height="12" viewBox="0 0 39 12" fill="none" xmlns="http://www.w3.org/2000/svg">
<path d="M6.32581 4.80423H2.5762V0.795038H0.586023V10.8901H2.5762V6.70788H6.32581V10.8901H8.30156V0.795038H6.32581V4.80423ZM16.234 9.996C16.9695 9.2605 17.3445 8.35194 17.3445 7.28474C17.3445 6.21755 16.9695 5.32341 16.234 4.58791C15.4985 3.85241 14.5899 3.47745 13.5227 3.47745C12.4555 3.47745 11.547 3.85241 10.8115 4.58791C10.076 5.32341 9.71545 6.21755 9.71545 7.28474C9.71545 8.35194 10.076 9.2605 10.8115 9.996C11.547 10.7315 12.4555 11.092 13.5227 11.092C14.5899 11.092 15.4985 10.7315 16.234 9.996ZM12.1238 8.71248C11.7633 8.33752 11.5758 7.86161 11.5758 7.28474C11.5758 6.70788 11.7633 6.23197 12.1238 5.85701C12.4988 5.48205 12.9603 5.29457 13.5227 5.29457C14.0852 5.29457 14.5467 5.48205 14.9216 5.85701C15.2966 6.23197 15.4841 6.70788 15.4841 7.28474C15.4841 7.86161 15.2966 8.33752 14.9216 8.71248C14.5467 9.08744 14.0852 9.27492 13.5227 9.27492C12.9603 9.27492 12.4988 9.08744 12.1238 8.71248ZM26.6283 3.47745C25.6765 3.47745 24.9554 3.82357 24.4795 4.5158C24.0613 3.82357 23.3979 3.47745 22.5182 3.47745C21.6096 3.47745 20.9462 3.79472 20.5136 4.4437V3.67935H18.6532V10.8901H20.5136V6.83768C20.5136 5.7849 21.0472 5.20804 21.8692 5.20804C22.6336 5.20804 23.0806 5.71279 23.0806 6.57809V10.8901H24.941V6.83768C24.941 5.7849 25.4314 5.20804 26.2822 5.20804C27.0466 5.20804 27.4936 5.71279 27.4936 6.57809V10.8901H29.354V6.44829C29.354 4.6456 28.2868 3.47745 26.6283 3.47745ZM37.943 8.04909C37.9862 7.77508 38.0151 7.52991 38.0151 7.28474C38.0151 6.20313 37.669 5.30899 36.9767 4.57349C36.2989 3.83799 35.4192 3.47745 34.3664 3.47745C33.256 3.47745 32.333 3.83799 31.6263 4.57349C30.9197 5.29457 30.5591 6.20313 30.5591 7.28474C30.5591 8.38078 30.9197 9.28934 31.6408 10.0104C32.3618 10.7315 33.3137 11.092 34.5106 11.092C35.8951 11.092 36.9479 10.5729 37.6546 9.54893L36.1547 8.68364C35.7942 9.15955 35.2461 9.40472 34.5395 9.40472C33.429 9.40472 32.7512 8.95765 32.5061 8.04909H37.943ZM32.4772 6.60693C32.6935 5.68395 33.3713 5.15035 34.3664 5.15035C35.2173 5.15035 35.9384 5.62626 36.1547 6.60693H32.4772Z" fill="black"/>
</svg>
