<svg width="42" height="40" viewBox="0 0 42 40" fill="none" xmlns="http://www.w3.org/2000/svg">
<path d="M27.3604 19.9998C27.3604 21.5911 26.7092 23.1172 25.5501 24.2424C24.391 25.3677 22.8189 25.9998 21.1797 25.9998C19.5405 25.9998 17.9684 25.3677 16.8093 24.2424C15.6502 23.1172 14.999 21.5911 14.999 19.9998C14.999 19.6578 15.0361 19.3238 15.1 18.9998H12.9388V26.9938C12.9388 27.5498 13.4023 27.9998 13.9751 27.9998H28.3864C28.6608 27.9993 28.9239 27.8931 29.1178 27.7044C29.3117 27.5158 29.4206 27.2603 29.4206 26.9938V18.9998H27.2594C27.3233 19.3238 27.3604 19.6578 27.3604 19.9998ZM21.1797 23.9998C21.7209 23.9997 22.2568 23.8961 22.7568 23.6949C23.2568 23.4937 23.7111 23.1989 24.0937 22.8272C24.4763 22.4556 24.7798 22.0145 24.9868 21.529C25.1938 21.0435 25.3003 20.5232 25.3001 19.9978C25.3 19.4724 25.1933 18.9521 24.986 18.4668C24.7788 17.9814 24.4751 17.5404 24.0923 17.169C23.7094 16.7975 23.255 16.5029 22.7549 16.302C22.2548 16.101 21.7189 15.9977 21.1776 15.9978C20.0845 15.9981 19.0363 16.4199 18.2636 17.1704C17.4909 17.9209 17.0569 18.9387 17.0572 19.9998C17.0575 21.0609 17.4919 22.0785 18.2651 22.8286C19.0382 23.5788 20.0866 24.0001 21.1797 23.9998ZM26.1242 15.7998H28.5944C28.7586 15.7998 28.916 15.7367 29.0322 15.6242C29.1484 15.5117 29.214 15.3591 29.2146 15.1998V12.8018C29.2146 12.6421 29.1492 12.489 29.0329 12.3761C28.9166 12.2632 28.7589 12.1998 28.5944 12.1998H26.1242C25.9598 12.1998 25.802 12.2632 25.6857 12.3761C25.5694 12.489 25.5041 12.6421 25.5041 12.8018V15.1998C25.5062 15.5298 25.7843 15.7998 26.1242 15.7998ZM21.1797 0.799805C15.9342 0.799805 10.9035 2.82266 7.19442 6.42335C3.4853 10.0241 1.40154 14.9076 1.40154 19.9998C1.40154 25.092 3.4853 29.9756 7.19442 33.5763C10.9035 37.177 15.9342 39.1998 21.1797 39.1998C23.777 39.1998 26.3489 38.7032 28.7485 37.7383C31.1481 36.7734 33.3284 35.3591 35.165 33.5763C37.0015 31.7934 38.4584 29.6768 39.4523 27.3473C40.4463 25.0179 40.9578 22.5212 40.9578 19.9998C40.9578 17.4784 40.4463 14.9817 39.4523 12.6523C38.4584 10.3228 37.0015 8.20624 35.165 6.42335C33.3284 4.64047 31.1481 3.22621 28.7485 2.26132C26.3489 1.29643 23.777 0.799805 21.1797 0.799805ZM31.4808 27.7778C31.4808 28.9998 30.4507 29.9998 29.1919 29.9998H13.1675C11.9087 29.9998 10.8786 28.9998 10.8786 27.7778V12.2218C10.8786 10.9998 11.9087 9.9998 13.1675 9.9998H29.1919C30.4507 9.9998 31.4808 10.9998 31.4808 12.2218V27.7778Z" fill="black"/>
</svg>
