<svg width="40" height="39" viewBox="0 0 40 39" fill="none" xmlns="http://www.w3.org/2000/svg">
<path d="M19.8514 0C8.88762 0 0 8.596 0 19.2C0 29.804 8.88762 38.4 19.8514 38.4C30.8151 38.4 39.7027 29.804 39.7027 19.2C39.7027 8.596 30.8151 0 19.8514 0ZM21.2099 23.75C19.9361 23.656 19.4026 23.046 18.4059 22.462C17.8579 25.244 17.188 27.912 15.2028 29.306C14.5887 25.098 16.1003 21.942 16.8033 18.588C15.6061 16.638 16.946 12.716 19.4729 13.68C22.5809 14.872 16.7806 20.93 20.6744 21.688C24.7397 22.476 26.4002 14.864 23.8795 12.392C20.236 8.818 13.2777 12.31 14.1337 17.426C14.3405 18.676 15.6784 19.056 14.6673 20.782C12.3368 20.282 11.6399 18.504 11.7309 16.134C11.8736 12.254 15.3352 9.536 18.805 9.162C23.1951 8.69 27.3142 10.72 27.8849 14.716C28.5239 19.224 25.9019 24.102 21.2099 23.75Z" fill="black"/>
</svg>
