<svg width="50" height="12" viewBox="0 0 50 12" fill="none" xmlns="http://www.w3.org/2000/svg">
<path d="M4.57636 11.092C5.65798 11.092 6.53769 10.818 7.2155 10.27C7.89332 9.72199 8.23944 8.98649 8.23944 8.04909C8.23944 7.47222 8.0808 6.96747 7.86448 6.62135C7.677 6.27523 7.2155 5.91469 6.91265 5.72721C6.76844 5.62626 6.55211 5.52531 6.2781 5.42436C6.00409 5.30899 5.78777 5.22246 5.62913 5.17919L4.9369 4.94845C4.18697 4.7177 3.68222 4.50138 3.40821 4.3139C3.14862 4.112 3.01883 3.85241 3.01883 3.53513C3.01883 2.94385 3.52358 2.52563 4.34561 2.52563C5.22533 2.52563 5.8743 2.95827 6.2781 3.82357L7.95101 2.85732C7.25877 1.42959 5.97525 0.593135 4.34561 0.593135C3.43705 0.593135 2.64387 0.867144 1.9949 1.41516C1.34593 1.94876 1.02865 2.68426 1.02865 3.59282C1.02865 4.5158 1.36035 5.20804 1.98047 5.66953C2.61502 6.1166 3.16304 6.33292 4.0716 6.60693C4.89363 6.83768 5.45607 7.054 5.77335 7.2559C6.09062 7.44338 6.24926 7.71739 6.24926 8.07793C6.24926 8.69806 5.7445 9.14513 4.63404 9.14513C3.48032 9.14513 2.70155 8.62595 2.31217 7.60202L0.610425 8.59711C1.17287 10.1402 2.57176 11.092 4.57636 11.092ZM16.657 8.04909C16.7003 7.77508 16.7291 7.52991 16.7291 7.28474C16.7291 6.20313 16.383 5.30899 15.6908 4.57349C15.013 3.83799 14.1332 3.47745 13.0805 3.47745C11.97 3.47745 11.047 3.83799 10.3404 4.57349C9.63371 5.29457 9.27317 6.20313 9.27317 7.28474C9.27317 8.38078 9.63371 9.28934 10.3548 10.0104C11.0759 10.7315 12.0277 11.092 13.2247 11.092C14.6092 11.092 15.6619 10.5729 16.3686 9.54893L14.8687 8.68364C14.5082 9.15955 13.9602 9.40471 13.2535 9.40471C12.1431 9.40471 11.4652 8.95765 11.2201 8.04909H16.657ZM11.1912 6.60693C11.4076 5.68395 12.0854 5.15035 13.0805 5.15035C13.9313 5.15035 14.6524 5.62626 14.8687 6.60693H11.1912ZM19.8882 3.67935H18.0279V10.8901H19.8882V7.44338C19.8882 6.75115 20.1046 6.26081 20.5516 5.95796C20.9987 5.65511 21.5179 5.53973 22.0803 5.61184V3.53513C21.0997 3.53513 20.2344 3.99663 19.8882 4.91961V3.67935ZM26.1536 8.7269L24.4086 3.67935H22.3607L25.1008 10.8901H27.2208L29.9609 3.67935H27.913L26.1536 8.7269ZM31.781 2.81406C32.4155 2.81406 32.9347 2.29488 32.9347 1.67475C32.9347 1.05462 32.4155 0.521027 31.781 0.521027C31.1608 0.521027 30.6417 1.05462 30.6417 1.67475C30.6417 2.29488 31.1608 2.81406 31.781 2.81406ZM32.7184 10.8901V3.67935H30.858V10.8901H32.7184ZM37.8535 11.092C39.2523 11.092 40.4782 10.3565 41.1127 9.21723L39.4975 8.29425C39.2091 8.88554 38.589 9.24608 37.839 9.24608C37.2766 9.24608 36.8151 9.0586 36.4546 8.69806C36.094 8.3231 35.9065 7.84719 35.9065 7.28474C35.9065 6.13102 36.7286 5.30899 37.839 5.30899C38.5745 5.30899 39.1947 5.68395 39.4831 6.27523L41.0839 5.33783C40.4926 4.19853 39.2523 3.47745 37.8535 3.47745C36.7718 3.47745 35.8633 3.83799 35.1278 4.57349C34.4067 5.30899 34.0462 6.20313 34.0462 7.28474C34.0462 8.36636 34.4067 9.2605 35.1278 9.996C35.8633 10.7315 36.7718 11.092 37.8535 11.092ZM48.9929 8.04909C49.0361 7.77508 49.065 7.52991 49.065 7.28474C49.065 6.20313 48.7188 5.30899 48.0266 4.57349C47.3488 3.83799 46.4691 3.47745 45.4163 3.47745C44.3058 3.47745 43.3829 3.83799 42.6762 4.57349C41.9696 5.29457 41.609 6.20313 41.609 7.28474C41.609 8.38078 41.9696 9.28934 42.6906 10.0104C43.4117 10.7315 44.3635 11.092 45.5605 11.092C46.945 11.092 47.9978 10.5729 48.7044 9.54893L47.2046 8.68364C46.844 9.15955 46.296 9.40471 45.5894 9.40471C44.4789 9.40471 43.8011 8.95765 43.5559 8.04909H48.9929ZM43.5271 6.60693C43.7434 5.68395 44.4212 5.15035 45.4163 5.15035C46.2672 5.15035 46.9883 5.62626 47.2046 6.60693H43.5271Z" fill="black"/>
</svg>
