<svg width="40" height="39" viewBox="0 0 40 39" fill="none" xmlns="http://www.w3.org/2000/svg">
<path d="M23.1173 18.866L18.49 16.77C18.0862 16.588 17.7545 16.792 17.7545 17.226V21.174C17.7545 21.608 18.0862 21.812 18.49 21.63L23.1152 19.534C23.5211 19.35 23.5211 19.05 23.1173 18.866ZM19.8147 0C8.89141 0 0.0365601 8.596 0.0365601 19.2C0.0365601 29.804 8.89141 38.4 19.8147 38.4C30.738 38.4 39.5929 29.804 39.5929 19.2C39.5929 8.596 30.738 0 19.8147 0ZM19.8147 27C9.69077 27 9.51359 26.114 9.51359 19.2C9.51359 12.286 9.69077 11.4 19.8147 11.4C29.9387 11.4 30.1158 12.286 30.1158 19.2C30.1158 26.114 29.9387 27 19.8147 27Z" fill="black"/>
</svg>
